<svg width="150" height="70" viewBox="0 0 150 70" fill="none" xmlns="http://www.w3.org/2000/svg">
<g clip-path="url(#clip0_2917_436)">
<path d="M27.7614 0.164062H28.2532L44.3081 48.1261C44.7995 49.6042 45.2639 50.7402 45.7012 51.5341C46.1386 52.328 46.6437 52.9168 47.2166 53.3004C47.7894 53.6833 48.5129 53.9022 49.3869 53.9571C50.261 54.012 51.4077 54.0394 52.8273 54.0394V54.8608H33.6617V54.0394H40.1327L34.0671 34.491H15.7198L8.01985 54.0373H15.8019V54.8587H0.728516V54.0373C1.929 54.0373 2.95291 54.0098 3.80027 53.9549C4.64763 53.9 5.37143 53.7357 5.97167 53.4619C6.56564 53.194 7.08571 52.7853 7.48701 52.271C7.897 51.7516 8.29294 50.9988 8.67485 50.0127L27.7614 0.164062ZM33.7407 33.6717L25.2215 8.7875L15.9651 33.6717H33.7407Z" fill="white"/>
<path d="M92.7215 15.6041C92.7215 17.8494 92.421 19.8887 91.8201 21.7222C90.7241 25.171 88.539 28.1689 85.5944 30.2633C84.2128 31.2566 82.6956 32.0449 81.0895 32.6039C79.8318 33.0554 78.526 33.3587 77.1985 33.5077C75.9616 33.6614 74.7169 33.7436 73.4706 33.7537C72.3028 33.747 71.1378 33.6371 69.9893 33.4253C68.8979 33.2386 67.8176 32.9919 66.7532 32.6863V54.039H72.7335V54.8604H55.4434V54.039C56.5358 54.039 57.4369 54.0115 58.1466 53.9566C58.8564 53.9017 59.4299 53.7511 59.8673 53.5048C60.3072 53.2556 60.6311 52.8424 60.7687 52.3551C60.9316 51.8356 61.0134 51.1103 61.0141 50.1791V6.73363C61.0141 5.25557 60.8775 4.11957 60.6045 3.32564C60.3314 2.53171 59.9354 1.94295 59.4166 1.55936C58.8978 1.17717 58.2288 0.958275 57.4095 0.902672C56.5902 0.847069 55.6074 0.819622 54.4609 0.820326V0H73.7107C76.9331 0 79.7321 0.424062 82.1078 1.27219C84.4835 2.12031 86.4492 3.27004 88.0049 4.72135C89.5199 6.11357 90.7088 7.8247 91.4863 9.73198C92.2474 11.5988 92.6659 13.5881 92.7215 15.6041ZM86.4137 15.4394C86.4137 12.8662 86.0588 10.6491 85.3491 8.78813C84.6393 6.92718 83.6424 5.40795 82.3584 4.23042C81.0642 3.04715 79.5262 2.16373 77.8535 1.64276C76.0633 1.08558 74.1982 0.808535 72.3239 0.821383H66.7532V31.8607C67.1603 32.0538 67.5858 32.2052 68.0232 32.3125C68.5892 32.4586 69.1639 32.5683 69.7439 32.6409C70.3708 32.7232 70.9988 32.7915 71.6278 32.8457C72.2596 32.9017 72.842 32.928 73.3885 32.928C74.4972 32.9414 75.6017 32.7891 76.6656 32.4762C77.5779 32.2061 78.4571 31.8342 79.2867 31.3676C81.1428 30.2725 82.7947 28.37 84.2423 25.6602C85.6899 22.9504 86.4134 19.5435 86.4127 15.4394H86.4137Z" fill="white"/>
<path d="M131.958 54.8604V54.039H134.252C135.125 54.039 135.834 54.0115 136.381 53.9566C136.928 53.9017 137.338 53.7374 137.61 53.4636C137.883 53.1898 138.06 52.7795 138.143 52.2326C138.238 51.4696 138.279 50.7009 138.266 49.9321V26.6906H108.781V54.0348H114.434V54.8561H97.1445V54.0348H97.7184C98.7546 54.0348 99.6283 54.0073 100.339 53.9524C101.051 53.8975 101.597 53.7606 101.978 53.5417C102.368 53.3131 102.66 52.9474 102.797 52.5155C102.96 52.051 103.042 51.3802 103.043 50.5033V6.73363C103.043 4.81848 102.892 3.35414 102.592 2.34061C102.292 1.32709 101.595 0.820326 100.504 0.820326H97.1445V0H114.265V0.820326H108.777V25.7869H138.262V6.73363C138.262 4.54469 138.166 3.01173 137.975 2.13475C137.783 1.25776 137.141 0.819622 136.05 0.820326H132.855V0H149.734V0.820326H144.005V54.039H149.739V54.8604H131.958Z" fill="white"/>
<path d="M3.93526 61.6328H4.36491L6.70163 68.6156C6.75495 68.7866 6.82295 68.9526 6.90487 69.1118C6.95676 69.2137 7.03222 69.3017 7.12496 69.3684C7.22007 69.4275 7.329 69.4606 7.44087 69.4644C7.56724 69.4718 7.73467 69.476 7.94107 69.476V69.5953H4.43651V69.476H5.37794L4.49654 66.6308H2.17982L1.05832 69.476H2.1914V69.5953H0V69.476C0.174807 69.476 0.32434 69.476 0.447547 69.4644C0.556297 69.4597 0.66331 69.4354 0.763463 69.3926C0.850024 69.3532 0.925865 69.2934 0.984605 69.2184C1.05746 69.1178 1.11561 69.0072 1.15731 68.8901L3.93526 61.6328ZM4.4481 66.5115L3.39504 63.3305L2.20193 66.5115H4.4481Z" fill="white"/>
<path d="M15.9444 69.6338C15.8085 69.6338 15.6285 69.6338 15.401 69.6338C15.1678 69.6291 14.9351 69.6111 14.7039 69.58C14.4731 69.5492 14.2442 69.5051 14.0184 69.448C13.83 69.4068 13.6529 69.325 13.4992 69.2084C13.3719 69.1141 13.2613 68.9992 13.1717 68.8684C13.0984 68.7578 13.0419 68.6368 13.0043 68.5094C12.9687 68.386 12.943 68.26 12.9274 68.1325C12.9105 68.0058 12.899 67.8781 12.8916 67.7503C12.8516 67.3523 12.8095 67.0113 12.7663 66.7463C12.7353 66.5103 12.6537 66.2837 12.5272 66.0822C12.4083 65.9078 12.2405 65.7726 12.0449 65.6937C11.7687 65.5904 11.4795 65.526 11.1856 65.5026C11.1225 65.4952 11.0551 65.4889 10.9835 65.4847C10.9119 65.4805 10.8445 65.4752 10.7802 65.4667L10.5696 65.4425V69.4839H11.4268V69.6032H8.13285V69.4839H8.31187C8.43086 69.4839 8.53406 69.4839 8.62252 69.4723C8.69987 69.4666 8.77502 69.4439 8.84261 69.4058C8.90342 69.3684 8.94981 69.3114 8.97424 69.2442C9.00541 69.1479 9.01932 69.0467 9.01531 68.9455V62.3343C9.01531 62.0795 8.95774 61.9183 8.84261 61.8508C8.67847 61.7718 8.49809 61.7327 8.31608 61.7367H8.10547V61.6174H12.2124C12.506 61.6144 12.7993 61.6384 13.0885 61.6892C13.3305 61.7302 13.5605 61.8239 13.7625 61.9637C14.0071 62.1166 14.1952 62.3453 14.2985 62.6151C14.3882 62.8826 14.4289 63.1641 14.4185 63.446C14.4244 63.6993 14.3774 63.951 14.2806 64.185C14.2013 64.3743 14.093 64.55 13.9594 64.7055C13.8495 64.8333 13.723 64.9459 13.5835 65.0402C13.4858 65.1074 13.3822 65.1654 13.2739 65.2134C13.042 65.3256 12.7978 65.4099 12.5462 65.4646C12.6497 65.5142 12.7576 65.5541 12.8684 65.5839C13.019 65.6301 13.1664 65.6862 13.3097 65.7518C13.4787 65.8296 13.6387 65.9259 13.7867 66.039C13.9546 66.1667 14.0975 66.3245 14.2079 66.5045C14.3014 66.6525 14.3661 66.817 14.3985 66.9891C14.4301 67.1602 14.4564 67.3418 14.4764 67.5329C14.4964 67.7239 14.5217 67.9172 14.5533 68.1125C14.5885 68.318 14.6527 68.5174 14.7439 68.7048C14.8233 68.8708 14.9325 69.0208 15.0661 69.1471C15.1689 69.2525 15.2903 69.3377 15.4242 69.3984C15.5419 69.4566 15.6694 69.4924 15.8001 69.504C15.9054 69.504 16.0107 69.5135 16.1034 69.5219V69.6412L15.9444 69.6338ZM12.939 63.5843C12.9256 63.3331 12.8796 63.0846 12.8021 62.8453C12.7322 62.629 12.6186 62.4295 12.4683 62.2593C12.3095 62.0876 12.1135 61.9547 11.8954 61.8708C11.631 61.7696 11.3496 61.7208 11.0667 61.7272H10.5654V65.302C10.6612 65.3094 10.7465 65.3179 10.8223 65.3263L11.033 65.3495C11.1004 65.358 11.172 65.3633 11.2436 65.3675C11.3152 65.3717 11.4089 65.3738 11.5121 65.3738C11.7682 65.384 12.0215 65.3174 12.2398 65.1827C12.4216 65.0644 12.5728 64.9045 12.681 64.7161C12.7844 64.5344 12.8557 64.3362 12.8916 64.1301C12.9268 63.9504 12.9427 63.7674 12.939 63.5843Z" fill="white"/>
<path d="M21.8701 62.9365C21.8501 62.7676 21.8123 62.6012 21.7575 62.4403C21.7085 62.2971 21.6291 62.1663 21.5247 62.057C21.4132 61.9445 21.2763 61.8605 21.1256 61.8121C20.9306 61.7522 20.7272 61.7241 20.5233 61.7287H19.5355V69.4758H20.418V69.5951H17.0893V69.4758H17.5537C17.7369 69.4758 17.8538 69.4304 17.9054 69.3386C17.9697 69.1771 17.9963 69.0031 17.9833 68.8297V62.7929C17.9833 62.53 17.9833 62.3262 17.9717 62.1827C17.9714 62.0731 17.947 61.9649 17.9001 61.8659C17.8808 61.8328 17.8539 61.8048 17.8217 61.784C17.7895 61.7633 17.7529 61.7505 17.7148 61.7466C17.5981 61.733 17.4806 61.727 17.3631 61.7287H16.9334C16.4645 61.7287 16.1307 61.8321 15.932 62.0391C15.7333 62.246 15.6101 62.5451 15.5624 62.9365H15.4434V61.6094H21.9902V62.9365H21.8701Z" fill="white"/>
<path d="M22.3711 69.592V69.4727H22.4543C22.6059 69.4727 22.727 69.4727 22.8186 69.461C22.8927 69.4584 22.9649 69.4377 23.0293 69.4009C23.0793 69.3654 23.1134 69.3115 23.124 69.251C23.1432 69.1547 23.1513 69.0566 23.1482 68.9585V62.2544C23.1533 62.1201 23.1413 61.9856 23.1124 61.8543C23.0893 61.7709 23.0071 61.7287 22.8745 61.7287H22.3732V61.6094H25.4144V61.7266H24.6952V69.4737H25.4113V69.593L22.3711 69.592Z" fill="white"/>
<path d="M31.243 67.4417C31.245 67.7645 31.1729 68.0835 31.0324 68.3739C30.898 68.6561 30.7073 68.9076 30.4721 69.113C30.2285 69.3207 29.9496 69.4827 29.6487 69.5912C29.3256 69.7081 28.9844 69.7667 28.6409 69.7644C28.3796 69.7651 28.1187 69.7449 27.8606 69.7042C27.6099 69.6641 27.3811 69.6183 27.174 69.5669C26.9865 69.5209 26.8016 69.4649 26.6201 69.3991C26.4572 69.34 26.3319 69.2903 26.2441 69.2502V67.8629H26.3631C26.4054 68.1546 26.5092 68.4339 26.6675 68.6822C26.8029 68.8876 26.9746 69.0664 27.174 69.2101C27.3617 69.3438 27.5718 69.4429 27.7942 69.5025C28.0119 69.5618 28.2364 69.592 28.4619 69.5923C28.9077 69.5923 29.2657 69.4667 29.536 69.2154C29.8063 68.9641 29.9414 68.577 29.9414 68.054C29.9466 67.8464 29.8991 67.6408 29.8035 67.4565C29.7097 67.2845 29.5843 67.1318 29.4338 67.0067C29.2663 66.8659 29.087 66.7398 28.8978 66.6298C28.6949 66.5102 28.4822 66.3785 28.2597 66.235C27.9732 66.052 27.7149 65.8806 27.4846 65.7208C27.269 65.5748 27.0726 65.402 26.9002 65.2067C26.7404 65.0227 26.6171 64.8099 26.5369 64.5795C26.4468 64.3037 26.4044 64.0145 26.4116 63.7244C26.4108 63.4242 26.4782 63.1278 26.6085 62.8576C26.7375 62.5851 26.9198 62.3413 27.1445 62.1407C27.3793 61.9318 27.6502 61.7676 27.9438 61.6561C28.2614 61.5345 28.5989 61.4737 28.9389 61.4767C29.1223 61.4776 29.3055 61.4895 29.4875 61.5126C29.6702 61.5353 29.8515 61.5673 30.0309 61.6086C30.2015 61.6488 30.3626 61.692 30.5132 61.7396C30.6638 61.7871 30.7954 61.8356 30.9071 61.8831V63.2229H30.7881C30.732 62.7941 30.5418 62.3941 30.2447 62.0806C30.1143 61.9449 29.9577 61.8375 29.7844 61.7649C29.6111 61.6923 29.4247 61.656 29.2369 61.6583C28.9849 61.6486 28.7346 61.7042 28.5103 61.8198C28.33 61.918 28.1733 62.0546 28.0512 62.2199C27.9384 62.3738 27.8572 62.5486 27.8121 62.7341C27.7707 62.9024 27.7488 63.0749 27.7468 63.2482C27.7426 63.4233 27.7708 63.5976 27.83 63.7624C27.8951 63.9217 27.9926 64.0655 28.1165 64.1847C28.2813 64.3452 28.4612 64.4894 28.6535 64.6154C28.8761 64.7675 29.1541 64.9508 29.4875 65.1655C29.7185 65.3168 29.9393 65.4643 30.1499 65.6079C30.3538 65.7459 30.5417 65.9063 30.7101 66.0861C30.8718 66.2597 31.0029 66.4597 31.0977 66.6773C31.1978 66.9195 31.2473 67.1796 31.243 67.4417Z" fill="white"/>
<path d="M35.2966 61.6328H35.7262L38.0682 68.6156C38.1215 68.7866 38.1895 68.9526 38.2715 69.1118C38.3234 69.2137 38.3988 69.3017 38.4916 69.3684C38.5865 69.4279 38.6955 69.461 38.8075 69.4644C38.9349 69.4718 39.1013 69.476 39.3087 69.476V69.5953H35.7978V69.476H36.7393L35.8568 66.6308H33.5401L32.4196 69.476H33.5527V69.5953H31.3613V69.476C31.5361 69.476 31.6857 69.476 31.8089 69.4644C31.9176 69.4597 32.0246 69.4354 32.1248 69.3926C32.2112 69.3534 32.2868 69.2936 32.3449 69.2184C32.4186 69.1182 32.4771 69.0075 32.5186 68.8901L35.2966 61.6328ZM35.8094 66.5115L34.7564 63.3305L33.5643 66.5115H35.8094Z" fill="white"/>
<path d="M45.8026 61.7308V69.7767H45.7668L40.4246 61.9641V69.4727H41.4777V69.592H39.4232V69.4727H39.6022C39.7078 69.4733 39.8133 69.4673 39.9181 69.4547C39.9977 69.4469 40.0749 69.4224 40.1445 69.3829C40.2042 69.3471 40.2505 69.2926 40.2761 69.2277C40.3076 69.1332 40.3216 69.0338 40.3172 68.9342V62.4308C40.3221 62.297 40.304 62.1634 40.2635 62.0359C40.2342 61.9515 40.1803 61.8779 40.1087 61.8248C40.0365 61.7748 39.952 61.7456 39.8644 61.7403C39.7686 61.7329 39.6538 61.7287 39.5306 61.7287H39.3516V61.6094H41.9842L45.6804 67.1563V62.075C45.681 62.0212 45.6771 61.9676 45.6688 61.9145C45.6646 61.893 45.6561 61.8725 45.6438 61.8544C45.6315 61.8362 45.6156 61.8208 45.5972 61.8089C45.541 61.7746 45.4775 61.754 45.4119 61.7487C45.2952 61.7351 45.1777 61.7291 45.0602 61.7308H44.7864V61.6115H46.5987V61.7308H45.8026Z" fill="white"/>
<path d="M50.4548 61.6328H50.8834L53.2212 68.6156C53.2747 68.7864 53.3423 68.9523 53.4233 69.1118C53.4759 69.2136 53.5517 69.3015 53.6445 69.3684C53.7394 69.4279 53.8485 69.461 53.9604 69.4644C54.0878 69.4718 54.2542 69.476 54.4617 69.476V69.5953H50.955V69.476H51.8975L51.015 66.6308H48.7057L47.5852 69.476H48.7173V69.5953H46.5195V69.476C46.6943 69.476 46.8428 69.476 46.966 69.4644C47.0748 69.4597 47.1818 69.4354 47.2819 69.3926C47.3685 69.3532 47.4443 69.2934 47.5031 69.2184C47.5763 69.118 47.6345 69.0074 47.6758 68.8901L50.4548 61.6328ZM50.9676 66.5115L49.9146 63.3305L48.7225 66.5115H50.9676Z" fill="white"/>
<path d="M54.6621 69.5951V69.4758C54.8862 69.4877 55.1105 69.4573 55.3234 69.3861C55.4624 69.3259 55.534 69.1686 55.534 68.9142V62.3505C55.537 62.2358 55.5249 62.1211 55.4982 62.0095C55.4773 61.931 55.4282 61.8629 55.3603 61.8184C55.2789 61.7707 55.187 61.7439 55.0928 61.7403C54.9812 61.7329 54.838 61.7287 54.6632 61.7287V61.6094H57.9782V61.7297H57.0841V69.4769H57.8655C58.0965 69.4769 58.351 69.4748 58.629 69.4705C58.907 69.4663 59.1772 69.4603 59.4398 69.4526C59.5961 69.4559 59.7498 69.4122 59.881 69.327C60.013 69.2387 60.1282 69.1275 60.2212 68.9986C60.3233 68.8575 60.4092 68.7052 60.4771 68.5447C60.5501 68.3723 60.6137 68.1961 60.6677 68.0168H60.7877V69.6004L54.6621 69.5951Z" fill="white"/>
<path d="M70.1768 63.8811C70.1806 64.1832 70.1365 64.4839 70.0462 64.7722C69.8862 65.2742 69.568 65.7106 69.1395 66.0158C68.9383 66.1602 68.7173 66.2747 68.4835 66.3558C68.3004 66.4218 68.1103 66.4661 67.9169 66.4878C67.737 66.5104 67.5559 66.5224 67.3746 66.5237C67.2956 66.5237 67.1977 66.5237 67.0829 66.512C66.9681 66.5004 66.8523 66.492 66.7364 66.4761C66.6206 66.4603 66.51 66.4445 66.4026 66.4276C66.3156 66.4164 66.2299 66.3966 66.1467 66.3685V69.4766H67.0166V69.5959H63.7858V69.4766C63.9438 69.4766 64.0754 69.4766 64.1786 69.465C64.2659 69.461 64.3514 69.4383 64.4292 69.3985C64.4931 69.3622 64.5404 69.3024 64.5608 69.2317C64.5877 69.1283 64.5998 69.0217 64.5966 68.9149V62.5899C64.6028 62.4224 64.5826 62.2549 64.5366 62.0937C64.5059 61.9928 64.4458 61.9034 64.3639 61.8371C64.2775 61.7776 64.1759 61.7443 64.0712 61.7411C63.9522 61.7337 63.809 61.7294 63.6426 61.7294V61.6101H67.4104C67.8254 61.6016 68.2389 61.6641 68.633 61.7949C68.9503 61.9019 69.2424 62.0729 69.4912 62.2974C69.7121 62.4998 69.8851 62.7491 69.9978 63.027C70.1089 63.2984 70.1695 63.5878 70.1768 63.8811ZM68.6509 63.8579C68.6583 63.5281 68.6059 63.1997 68.4961 62.8887C68.4042 62.6367 68.2549 62.4097 68.0601 62.2256C67.8716 62.0535 67.6476 61.9248 67.4041 61.8487C67.1436 61.7678 66.8723 61.7275 66.5996 61.7294H66.1467V66.2481C66.2013 66.2746 66.2595 66.2927 66.3194 66.3019L66.5216 66.3378C66.5808 66.349 66.6406 66.3571 66.7006 66.3621C66.7526 66.3663 66.7905 66.3685 66.8144 66.3685C66.9647 66.3714 67.1147 66.3551 67.2609 66.3199C67.3842 66.2882 67.5029 66.2403 67.6136 66.1774C67.8832 66.0183 68.1237 65.7413 68.335 65.3465C68.5463 64.9516 68.6516 64.4554 68.6509 63.8579Z" fill="white"/>
<path d="M73.2185 61.6328H73.6481L75.9848 68.6156C76.0382 68.7866 76.1062 68.9526 76.1881 69.1118C76.24 69.2137 76.3154 69.3017 76.4082 69.3684C76.5031 69.4279 76.6121 69.461 76.7241 69.4644C76.8515 69.4718 77.0179 69.476 77.2253 69.476V69.5953H73.7187V69.476H74.6664L73.784 66.6308H71.4672L70.3468 69.476H71.4799V69.5953H69.2832V69.476C69.458 69.476 69.6065 69.476 69.7308 69.4644C69.8395 69.4597 69.9465 69.4354 70.0467 69.3926C70.1331 69.3534 70.2086 69.2936 70.2668 69.2184C70.34 69.118 70.3982 69.0074 70.4395 68.8901L73.2185 61.6328ZM73.7313 66.5115L72.6783 63.3305L71.4862 66.5115H73.7313Z" fill="white"/>
<path d="M85.2262 69.6338C85.0915 69.6338 84.9103 69.6338 84.6839 69.6338C84.2172 69.6244 83.753 69.562 83.3002 69.448C83.1122 69.4068 82.9354 69.325 82.7821 69.2084C82.6548 69.1138 82.5438 68.9989 82.4535 68.8684C82.3805 68.7577 82.3245 68.6367 82.2872 68.5094C82.2512 68.3861 82.2252 68.26 82.2092 68.1325C82.1935 68.0058 82.1808 67.8781 82.1734 67.7503C82.1334 67.3523 82.0913 67.0113 82.0481 66.7463C82.0169 66.5105 81.9358 66.284 81.8101 66.0822C81.6905 65.908 81.5224 65.7729 81.3268 65.6937C81.051 65.5902 80.7621 65.5259 80.4685 65.5026C80.4043 65.4952 80.3369 65.4889 80.2653 65.4847C80.1937 65.4805 80.1263 65.4752 80.0631 65.4667L79.8525 65.4425V69.4839H80.7108V69.6032H77.42V69.4839H77.599C77.718 69.4839 77.8212 69.4839 77.9086 69.4723C77.9863 69.4668 78.0618 69.4441 78.1297 69.4058C78.1901 69.3682 78.2361 69.3113 78.2603 69.2442C78.2919 69.1479 78.3062 69.0468 78.3024 68.9455V62.3343C78.3024 62.0795 78.2448 61.9183 78.1297 61.8508C77.9654 61.7722 77.7852 61.7332 77.6032 61.7367H77.3926V61.6174H81.4995C81.7935 61.6144 82.0871 61.6384 82.3767 61.6892C82.6183 61.7302 82.8481 61.8239 83.0496 61.9637C83.2948 62.1162 83.4834 62.345 83.5866 62.6151C83.6765 62.8825 83.7169 63.1641 83.7056 63.446C83.7118 63.6992 83.6652 63.951 83.5687 64.185C83.4888 64.3742 83.3801 64.5498 83.2465 64.7055C83.0581 64.9234 82.824 65.0968 82.561 65.2134C82.3292 65.3257 82.0849 65.4101 81.8333 65.4646C81.937 65.5138 82.0448 65.5537 82.1555 65.5839C82.3062 65.63 82.4536 65.686 82.5968 65.7518C82.766 65.8293 82.926 65.9257 83.0738 66.039C83.242 66.1664 83.3849 66.3243 83.495 66.5045C83.589 66.6523 83.6537 66.8168 83.6856 66.9891C83.7183 67.1602 83.7435 67.3418 83.7636 67.5329C83.7836 67.7239 83.8088 67.9172 83.8415 68.1125C83.8762 68.3181 83.9404 68.5176 84.0321 68.7048C84.1107 68.8713 84.22 69.0213 84.3543 69.1471C84.4567 69.2524 84.5777 69.3376 84.7113 69.3984C84.829 69.4566 84.9565 69.4924 85.0872 69.504C85.1925 69.504 85.2978 69.5135 85.3916 69.5219V69.6412L85.2262 69.6338ZM82.2208 63.5843C82.208 63.333 82.162 63.0845 82.0839 62.8453C82.0145 62.6288 81.9008 62.4293 81.7501 62.2593C81.5915 62.0879 81.3959 61.955 81.1783 61.8708C80.9136 61.7696 80.6318 61.7208 80.3485 61.7272H79.8483V65.302C79.9431 65.3094 80.0294 65.3179 80.1042 65.3263L80.3148 65.3495C80.3822 65.358 80.4538 65.3633 80.5254 65.3675C80.597 65.3717 80.6907 65.3738 80.7939 65.3738C81.05 65.3837 81.3032 65.3172 81.5216 65.1827C81.7033 65.0642 81.8545 64.9043 81.9628 64.7161C82.0663 64.5344 82.1375 64.3362 82.1734 64.1301C82.2092 63.9505 82.2251 63.7675 82.2208 63.5843Z" fill="white"/>
<path d="M90.9267 62.9439C90.8783 62.7686 90.8288 62.6071 90.7772 62.4603C90.7309 62.3225 90.6626 62.193 90.575 62.0771C90.4914 61.9698 90.3854 61.8822 90.2643 61.8205C90.1255 61.7527 89.9722 61.7198 89.8178 61.7244H87.8023V65.4787H89.3819C89.4913 65.4801 89.6007 65.4741 89.7094 65.4608C89.7861 65.4523 89.8566 65.4145 89.9063 65.3552C89.9653 65.2677 90.0015 65.1668 90.0116 65.0617C90.035 64.8715 90.0452 64.68 90.0421 64.4884H90.1611V66.4247H90.0421V65.6001H88.2414C88.1464 65.6037 88.053 65.626 87.9666 65.6656C87.9145 65.6901 87.8716 65.7304 87.8438 65.7809C87.816 65.8313 87.8048 65.8892 87.8118 65.9464V69.4737H88.8248V69.593H85.4887V69.4737H85.5719C85.7078 69.4737 85.8183 69.4737 85.9058 69.4621C85.9787 69.4577 86.0502 69.4394 86.1164 69.4083C86.1426 69.3926 86.1654 69.3718 86.1835 69.3472C86.2016 69.3225 86.2146 69.2945 86.2217 69.2647C86.2437 69.1728 86.2536 69.0783 86.2512 68.9838V62.3843C86.2563 62.2548 86.2403 62.1254 86.2038 62.0011C86.1784 61.9232 86.1304 61.8548 86.0658 61.8047C86.004 61.76 85.9312 61.733 85.8552 61.7266C85.772 61.7192 85.6825 61.715 85.5877 61.715H85.4824V61.6094H91.0383V62.9481L90.9267 62.9439Z" fill="white"/>
<path d="M98.4022 61.7261V65.6325C98.4078 66.2009 98.3456 66.768 98.2169 67.3217C98.1149 67.7796 97.9312 68.2152 97.6746 68.6076C97.452 68.943 97.1541 69.2215 96.8048 69.4205C96.4463 69.6155 96.0436 69.7141 95.6359 69.7066C95.244 69.7035 94.8544 69.6474 94.4775 69.5398C94.0735 69.429 93.695 69.24 93.3634 68.9834C93.0122 68.7104 92.7247 68.3638 92.5209 67.9678C92.2991 67.5455 92.1878 67.0253 92.1871 66.4074V62.3427C92.1871 62.0798 92.1355 61.9099 92.0323 61.8349C91.9291 61.7599 91.7501 61.7209 91.4953 61.7209H91.1973V61.6016H94.9335V61.7261H93.7404V65.8869C93.732 66.481 93.7739 67.0747 93.8657 67.6616C93.9236 68.0615 94.0508 68.4481 94.2416 68.804C94.3828 69.0666 94.6012 69.2793 94.8672 69.4131C95.1462 69.5391 95.45 69.6005 95.7559 69.5926C96.0358 69.5855 96.3114 69.5227 96.5668 69.4078C96.8866 69.2641 97.1683 69.0471 97.3892 68.7744C97.6737 68.4256 97.8902 68.0263 98.0274 67.5972C98.2134 67.004 98.3003 66.384 98.2843 65.7623V62.235C98.2843 61.9954 98.2106 61.8507 98.0632 61.799C97.832 61.7366 97.5926 61.7103 97.3534 61.7209H97.008V61.6016H99.2742V61.7261H98.4022Z" fill="white"/>
<path d="M105.903 69.593V69.4737H106.142C106.247 69.4737 106.328 69.4737 106.392 69.4674C106.445 69.4681 106.496 69.4489 106.535 69.4135C106.571 69.372 106.592 69.3196 106.594 69.2647C106.604 69.1672 106.608 69.0692 106.607 68.9712V61.8226L103.732 69.7482H103.662L100.573 61.8818V69.4737H101.539V69.593H99.5V69.4737H99.9054C100.056 69.4821 100.205 69.4453 100.334 69.3681C100.414 69.3048 100.453 69.157 100.453 68.9374V62.398C100.453 62.2544 100.453 62.1394 100.441 62.0517C100.438 61.9792 100.416 61.9088 100.376 61.848C100.334 61.7967 100.274 61.7628 100.209 61.753C100.109 61.7348 100.007 61.7267 99.9054 61.7287H99.5V61.6094H102.087L104.352 67.6103L106.571 61.6094H109.051V61.7276H108.157V69.4748H109.051V69.5941L105.903 69.593Z" fill="white"/>
<path d="M117.435 69.5941V69.4748H117.769C117.895 69.4748 117.999 69.4748 118.078 69.4632C118.144 69.4605 118.208 69.4352 118.257 69.3914C118.301 69.3414 118.328 69.2785 118.334 69.2119C118.348 69.1009 118.354 68.9891 118.352 68.8772V65.4988H114.772V69.4801H115.595V69.5994H112.363V69.4801H112.446C112.597 69.4801 112.724 69.4801 112.829 69.4684C112.911 69.4654 112.992 69.4449 113.067 69.4083C113.124 69.3749 113.166 69.3214 113.186 69.2583C113.213 69.1635 113.226 69.0647 113.222 68.9659V62.5933C113.228 62.3781 113.206 62.1629 113.156 61.9536C113.14 61.8863 113.101 61.827 113.045 61.7865C112.989 61.746 112.921 61.727 112.852 61.7329H112.363V61.6136H115.574V61.7287H114.775V65.3637H118.355V62.5891C118.362 62.3652 118.348 62.1412 118.314 61.9198C118.286 61.7931 118.193 61.7287 118.034 61.7287H117.569V61.6094H120.734V61.7287H119.9V69.4758H120.734V69.5951L117.435 69.5941Z" fill="white"/>
<path d="M129.561 65.4694C129.564 65.8935 129.5 66.3155 129.371 66.7194C129.251 67.0929 129.08 67.4481 128.864 67.7751C128.655 68.0891 128.404 68.3732 128.119 68.6197C127.843 68.8591 127.541 69.0656 127.218 69.2353C126.909 69.3969 126.583 69.5234 126.246 69.6122C125.931 69.6971 125.607 69.7411 125.281 69.7431C124.801 69.7378 124.326 69.6448 123.879 69.4686C123.395 69.2833 122.951 69.0095 122.567 68.6609C122.162 68.2911 121.833 67.8466 121.596 67.3518C121.332 66.7913 121.201 66.1769 121.214 65.557C121.203 64.9594 121.338 64.3681 121.608 63.835C121.857 63.3485 122.2 62.9159 122.615 62.5618C123.019 62.2191 123.479 61.95 123.975 61.7668C124.947 61.3924 126.025 61.4011 126.992 61.7911C127.477 61.9831 127.924 62.2626 128.309 62.6157C128.693 62.9696 129.003 63.3963 129.221 63.8709C129.451 64.3721 129.567 64.9179 129.561 65.4694ZM127.892 65.482C127.895 64.9721 127.845 64.4633 127.743 63.9639C127.658 63.5335 127.506 63.1196 127.29 62.7381C127.102 62.4075 126.838 62.1266 126.52 61.9189C126.195 61.7158 125.818 61.6119 125.435 61.6201C125.028 61.6089 124.628 61.7259 124.291 61.9547C123.963 62.1888 123.693 62.4932 123.498 62.8458C123.278 63.2412 123.121 63.6686 123.032 64.1127C122.933 64.5944 122.883 65.0851 122.884 65.577C122.88 66.1203 122.926 66.6628 123.021 67.1976C123.095 67.6419 123.245 68.0703 123.462 68.4646C123.649 68.8041 123.92 69.0901 124.249 69.2954C124.605 69.5037 125.012 69.6072 125.424 69.5942C125.803 69.6019 126.175 69.4936 126.491 69.2838C126.811 69.0613 127.074 68.7661 127.259 68.4223C127.482 68.0147 127.641 67.5753 127.731 67.1195C127.843 66.581 127.898 66.0321 127.894 65.482H127.892Z" fill="white"/>
<path d="M137.015 61.7261V65.6325C137.021 66.2009 136.959 66.768 136.83 67.3217C136.728 67.7794 136.544 68.215 136.288 68.6076C136.065 68.9428 135.767 69.2212 135.417 69.4205C135.059 69.6155 134.656 69.7141 134.248 69.7066C133.856 69.7035 133.467 69.6474 133.09 69.5398C132.686 69.4288 132.307 69.2398 131.975 68.9834C131.624 68.7102 131.336 68.3636 131.132 67.9678C130.909 67.5455 130.798 67.0253 130.798 66.4074V62.3427C130.798 62.0798 130.746 61.9099 130.643 61.8349C130.539 61.7599 130.36 61.7209 130.107 61.7209H129.809V61.6016H133.541V61.7261H132.349V65.8869C132.34 66.481 132.382 67.0747 132.474 67.6616C132.532 68.0613 132.659 68.4478 132.849 68.804C132.992 69.0673 133.213 69.28 133.481 69.4131C133.759 69.539 134.063 69.6004 134.368 69.5926C134.648 69.5855 134.924 69.5227 135.179 69.4078C135.499 69.2641 135.781 69.0472 136.003 68.7744C136.286 68.4252 136.503 68.026 136.641 67.5972C136.811 67.1045 136.897 66.4929 136.897 65.7623V62.235C136.897 61.9954 136.823 61.8507 136.677 61.799C136.445 61.7367 136.206 61.7103 135.967 61.7209H135.62V61.6016H137.887V61.7261H137.015Z" fill="white"/>
<path d="M143.19 67.4396C143.192 67.7624 143.12 68.0814 142.98 68.3718C142.845 68.6539 142.655 68.9055 142.419 69.1108C142.176 69.3186 141.897 69.4806 141.596 69.5891C141.273 69.706 140.932 69.7646 140.588 69.7623C140.327 69.7629 140.066 69.7428 139.808 69.7021C139.557 69.662 139.328 69.6162 139.121 69.5648C138.934 69.5188 138.749 69.4628 138.567 69.397C138.404 69.3378 138.278 69.2882 138.191 69.2481V67.8608H138.319C138.361 68.1524 138.464 68.4317 138.622 68.6801C138.758 68.8854 138.929 69.0643 139.129 69.208C139.316 69.3417 139.526 69.4407 139.749 69.5004C139.967 69.5598 140.192 69.5899 140.418 69.5902C140.862 69.5902 141.22 69.4645 141.491 69.2133C141.762 68.962 141.897 68.5749 141.896 68.0519C141.901 67.8444 141.854 67.6389 141.759 67.4544C141.664 67.2833 141.539 67.1315 141.388 67.0067C141.221 66.8659 141.042 66.7398 140.852 66.6298C140.649 66.5102 140.436 66.3785 140.214 66.235C139.928 66.052 139.67 65.8806 139.439 65.7208C139.224 65.5748 139.027 65.402 138.855 65.2067C138.695 65.0227 138.572 64.8098 138.492 64.5795C138.401 64.3037 138.359 64.0145 138.366 63.7244C138.365 63.4242 138.433 63.1278 138.563 62.8576C138.692 62.5851 138.874 62.3413 139.099 62.1407C139.334 61.9318 139.605 61.7676 139.898 61.6561C140.216 61.5346 140.554 61.4737 140.894 61.4767C141.077 61.4776 141.26 61.4895 141.442 61.5126C141.625 61.5352 141.806 61.5672 141.986 61.6086C142.156 61.6488 142.317 61.692 142.468 61.7395C142.618 61.7871 142.75 61.8356 142.862 61.8831V63.2229H142.742C142.686 62.7941 142.495 62.3941 142.198 62.0806C142.068 61.945 141.912 61.8376 141.738 61.765C141.565 61.6924 141.379 61.656 141.192 61.6583C140.939 61.6484 140.689 61.7041 140.464 61.8198C140.284 61.918 140.127 62.0546 140.005 62.2199C139.892 62.3738 139.811 62.5486 139.766 62.7341C139.724 62.9024 139.702 63.0749 139.7 63.2482C139.696 63.4233 139.724 63.5976 139.784 63.7624C139.849 63.9216 139.946 64.0655 140.07 64.1847C140.235 64.3449 140.415 64.4892 140.607 64.6154C140.829 64.7675 141.107 64.9508 141.441 65.1655C141.672 65.3168 141.893 65.4643 142.103 65.6078C142.307 65.7459 142.495 65.9063 142.664 66.0861C142.826 66.2594 142.957 66.4594 143.051 66.6773C143.149 66.9193 143.196 67.1787 143.19 67.4396Z" fill="white"/>
<path d="M143.883 69.5951V69.4758H144.062C144.181 69.4758 144.282 69.4758 144.365 69.4642C144.44 69.4595 144.512 69.4367 144.576 69.3977C144.635 69.3579 144.679 69.2991 144.701 69.2309C144.733 69.1285 144.747 69.0214 144.743 68.9142V62.1953C144.745 62.0835 144.72 61.9728 144.672 61.8723C144.624 61.7762 144.508 61.7287 144.326 61.7287H143.885V61.6094H149.501V62.9365H149.377C149.337 62.5458 149.235 62.2467 149.072 62.0391C148.91 61.8279 148.593 61.7287 148.125 61.7287H146.291V65.5294H147.89C147.995 65.531 148.101 65.525 148.206 65.5115C148.24 65.5072 148.274 65.4946 148.303 65.4748C148.332 65.4549 148.355 65.4284 148.372 65.3974C148.415 65.3038 148.435 65.2015 148.432 65.0987C148.432 64.9635 148.432 64.7682 148.432 64.5138H148.552V66.45H148.432V65.6487H146.799C146.68 65.651 146.563 65.6818 146.459 65.7384C146.401 65.7704 146.354 65.8186 146.323 65.8772C146.292 65.9357 146.279 66.002 146.286 66.0678V69.4748H148.575C148.79 69.4796 149.004 69.4595 149.213 69.4146C149.356 69.386 149.488 69.3175 149.595 69.2172C149.691 69.1179 149.759 68.9942 149.791 68.8593C149.837 68.6807 149.869 68.4989 149.887 68.3156H149.993V69.5941L143.883 69.5951Z" fill="white"/>
</g>
<defs>
<clipPath id="clip0_2917_436">
<rect width="150" height="69.774" fill="white"/>
</clipPath>
</defs>
</svg>
